<svg xmlns="http://www.w3.org/2000/svg" width="256" height="256" viewBox="0 0 256 256"><g stroke="#292C29" stroke-width="7" stroke-linecap="round" stroke-linejoin="round" transform="translate(7.68 7.68) scale(0.94)"><path d="M124,166C128,119 133,77 151,30" fill="none"/><path d="M139,75C137,47 151,26 174,22C182,48 166,72 139,75Z" fill="#87955B"/><path d="M131,112C104,106 86,85 87,58C114,62 134,82 131,112Z" fill="#87955B"/><path d="M130,140C149,114 176,96 202,103C194,130 165,146 130,140Z" fill="#87955B"/><path d="M99,73L131,108M153,118L130,138" fill="none" stroke-width="5"/><path d="M176,161C199,144 225,152 230,172C235,192 213,209 187,207L178,191C197,194 215,183 212,174C209,165 193,169 184,176Z" fill="#F0E6CC"/><path d="M36,149C73,137 148,137 186,149C186,185 166,226 113,230C61,228 39,188 36,149Z" fill="#F0E6CC"/><path d="M36,149C75,136 148,138 186,149C161,168 64,168 36,149Z" fill="#87955B"/></g></svg>