<svg xmlns="http://www.w3.org/2000/svg" width="256" height="256" viewBox="0 0 256 256"><g stroke="#292C29" stroke-width="7" stroke-linecap="round" stroke-linejoin="round" transform="translate(7.68 7.68) scale(0.94)"><path d="M25,181L38,104L67,70L109,43L151,32L190,66L220,106L231,184L196,202L55,200Z" fill="#9AABA1"/><path d="M74,181L74,93L177,93L188,181Z" fill="#292C29"/><path d="M60,178L62,87L80,86L80,180ZM174,178L169,86L188,87L196,179Z" fill="#B98854"/><path d="M55,80L191,80L196,101L54,101Z" fill="#B98854"/><path d="M66,107L79,124M185,107L174,124" fill="none" stroke-width="5"/><path d="M90,183L52,232M164,183L194,232M70,210L179,210M57,225L190,225" fill="none" stroke-width="6"/><path d="M108,179C95,175 83,183 83,196C84,209 100,214 110,205C117,198 117,186 108,179ZM162,179C149,175 137,184 138,198C141,212 159,213 166,203C172,195 171,186 162,179Z" fill="#292C29"/><path d="M95,147L100,126L120,119L137,132L153,114L173,127L179,152Z" fill="#9AABA1"/><path d="M85,148L184,148L176,187L100,191Z" fill="#B98854"/><path d="M95,164L181,162" fill="none" stroke-width="5"/></g></svg>