<svg xmlns="http://www.w3.org/2000/svg" width="256" height="256" viewBox="0 0 256 256"><g stroke="#292C29" stroke-width="7" stroke-linecap="round" stroke-linejoin="round" transform="translate(7.68 7.68) scale(0.94)"><path d="M53,108L203,108L203,154L53,154Z" fill="#B9684C"/><path d="M61,102C79,103 88,91 95,76L162,76C169,92 180,102 199,102L204,112L52,112Z" fill="#D69B42"/><path d="M81,79C96,78 107,65 111,54L144,54C150,69 159,78 176,79L177,88L80,88Z" fill="#D69B42"/><path d="M74,126L74,150M101,124L101,150M129,124L129,150M155,124L155,150M182,125L182,150" fill="none" stroke-width="6"/><path d="M31,175L31,210L227,210L227,175Z" fill="#B9684C"/><path d="M23,165C35,169 46,154 52,140L91,140C97,154 104,165 114,165L114,177L23,177ZM141,165C153,166 161,153 166,140L204,140C211,155 221,168 233,165L233,177L141,177Z" fill="#D69B42"/><path d="M100,210L100,156L155,156L155,210Z" fill="#B9684C"/><path d="M88,152C104,155 114,137 117,126L140,126C145,141 153,153 168,152L168,165L88,165Z" fill="#D69B42"/><path d="M116,210L116,189Q128,170 140,189L140,210Z" fill="#292C29" stroke="none"/><path d="M42,187L42,200M76,187L76,200M180,187L180,200M215,187L215,200" fill="none" stroke-width="6"/><path d="M25,211L231,211L231,225L25,225Z" fill="#D69B42"/><path d="M98,217L157,217" fill="none" stroke-width="4"/></g></svg>