<svg xmlns="http://www.w3.org/2000/svg" width="256" height="256" viewBox="0 0 256 256"><g stroke="#292C29" stroke-width="7" stroke-linecap="round" stroke-linejoin="round" transform="translate(7.68 7.68) scale(0.94)"><path d="M26,120L91,120L91,98L164,98L164,120L229,120L229,212L26,212Z" fill="#B5B6A6"/><path d="M88,101C88,62 106,42 128,42C151,42 168,64 168,101Z" fill="#F3D99A"/><path d="M128,42L128,30M88,102L168,102" fill="none" stroke-width="6"/><path d="M23,120L58,95L94,120ZM161,120L195,95L231,120Z" fill="#F3D99A"/><path d="M25,137L89,137L89,196L25,196ZM166,137L229,137L229,196L166,196Z" fill="#292C29" stroke="none"/><path d="M33,139L33,196M57,139L57,196M80,139L80,196M175,139L175,196M198,139L198,196M221,139L221,196" fill="none" stroke="#F3D99A" stroke-width="10"/><path d="M99,211L99,163Q128,134 157,163L157,211Z" fill="#F3D99A"/><path d="M116,209L116,173Q128,158 141,173L141,209Z" fill="#292C29" stroke="none"/><path d="M23,213L232,213L232,228L23,228Z" fill="#F3D99A"/></g></svg>