<svg xmlns="http://www.w3.org/2000/svg" width="256" height="256" viewBox="0 0 256 256"><g stroke="#292C29" stroke-width="5" stroke-linecap="round" stroke-linejoin="round" transform="translate(7.68 7.68) scale(0.94)"><path d="M40,154L40,106C40,65 74,41 116,41C161,41 187,67 187,106L187,154Z" fill="#F3D99A" stroke-width="7"/><path d="M57,153L57,102C57,74 80,53 115,53C153,53 168,76 168,102L168,153" fill="none"/><path d="M38,150L191,150L185,183L48,183Z" fill="#B98854" stroke-width="7"/><path d="M49,165L181,165M111,151L111,180M187,175L231,188" fill="none" stroke-width="6"/><path d="M45,190C45,172 58,159 76,159C94,159 107,173 107,190C107,209 94,222 76,222C57,222 45,209 45,190ZM56,190C56,202 65,211 76,211C88,211 96,202 96,190C96,178 87,170 76,170C65,170 56,178 56,190Z" fill="#F3D99A"/><path d="M143,190C143,171 155,159 173,159C190,159 204,172 204,190C204,209 190,222 173,222C155,222 143,209 143,190ZM154,190C154,202 162,211 173,211C184,211 193,202 193,190C193,178 184,170 173,170C162,170 154,178 154,190Z" fill="#F3D99A"/><path d="M59,176L92,206M60,206L92,176M155,176L189,206M155,206L189,176" fill="none"/></g></svg>