<svg xmlns="http://www.w3.org/2000/svg" width="256" height="256" viewBox="0 0 256 256"><g stroke="#292C29" stroke-width="7" stroke-linecap="round" stroke-linejoin="round" transform="translate(7.68 7.68) scale(0.94)"><path d="M25,170L48,126Q50,122 57,122L125,123L146,164L141,206L38,213Q31,213 30,207Z" fill="#D69B42"/><path d="M48,126L125,123L146,164L25,170Z" fill="#F3D99A" stroke-width="6"/><path d="M146,164L122,182L38,185M122,182L120,207" fill="none" stroke-width="5"/><path d="M119,169L144,117Q146,113 152,112L209,105L231,149L229,191L136,214Q128,216 125,209Z" fill="#D69B42"/><path d="M144,117L209,105L231,149L119,169Z" fill="#F3D99A" stroke-width="6"/><path d="M231,149L211,173L130,192M211,173L211,194" fill="none" stroke-width="5"/><path d="M55,104L78,58Q80,54 86,54L157,45Q162,44 165,50L188,90L185,124L74,145Q65,146 62,139Z" fill="#D69B42"/><path d="M78,58L161,45L188,90L55,104Z" fill="#F3D99A" stroke-width="6"/><path d="M188,90L166,112L64,127M166,112L165,128" fill="none" stroke-width="5"/></g></svg>